<svg width="250" height="250" viewBox="0 0 250 250" fill="none" xmlns="http://www.w3.org/2000/svg">
<path d="M142.391 248.784C173.819 244.369 202.391 228.164 222.311 203.457C242.231 178.751 252.007 147.392 249.657 115.742C247.306 84.0923 233.005 54.5217 209.654 33.0286C186.303 11.5354 155.65 -0.270823 123.915 0.00471097C92.1791 0.280245 61.7365 12.6169 38.7621 34.5123C15.7878 56.4076 2.00202 86.2221 0.201358 117.908C-1.59931 149.594 8.71993 180.778 29.0658 205.135C49.4117 229.492 78.2607 245.198 109.761 249.068L111.285 236.661C82.9346 233.179 56.9705 219.043 38.6592 197.122C20.3479 175.2 11.0606 147.134 12.6812 118.617C14.3018 90.0999 26.709 63.2669 47.3859 43.5611C68.0628 23.8552 95.4612 12.7522 124.023 12.5042C152.585 12.2563 180.172 22.8819 201.188 42.2257C222.204 61.5695 235.076 88.1831 237.191 116.668C239.307 145.153 230.508 173.375 212.58 195.612C194.652 217.848 168.937 232.432 140.652 236.406L142.391 248.784Z" fill="#D97757"/>
<path d="M217.785 118.696C218.977 136.241 215.176 153.894 206.642 169.538C195.334 190.267 176.565 205.918 154.142 213.317C134.829 219.689 114.053 219.528 94.9727 213.018L97.9746 204.217C115.147 210.076 133.846 210.22 151.228 204.485C171.408 197.826 188.3 183.74 198.478 165.084C206.159 151.004 209.58 135.117 208.507 119.325L217.785 118.696ZM93.4619 212.488C93.9002 212.646 94.3394 212.801 94.7803 212.952C94.3398 212.801 93.9005 212.646 93.4619 212.488ZM85.5508 209.217C85.749 209.31 85.9476 209.402 86.1465 209.493C86.0634 209.455 85.9794 209.419 85.8965 209.38C85.7809 209.327 85.6661 209.271 85.5508 209.217ZM96.6357 203.745C96.5075 203.699 96.379 203.654 96.251 203.607C96.379 203.654 96.5075 203.699 96.6357 203.745ZM96.1191 203.559C95.8608 203.464 95.603 203.367 95.3457 203.27C95.6032 203.367 95.8609 203.464 96.1191 203.559ZM95.1113 203.18C94.9239 203.108 94.7367 203.036 94.5498 202.963C94.7368 203.036 94.924 203.108 95.1113 203.18ZM94.041 202.762C93.9362 202.72 93.8312 202.679 93.7266 202.637C93.8312 202.679 93.9362 202.72 94.041 202.762ZM93.2148 202.429C93.0746 202.371 92.9349 202.312 92.7949 202.254C92.9349 202.313 93.0746 202.371 93.2148 202.429ZM92.3926 202.086C92.2188 202.013 92.0454 201.938 91.8721 201.864C92.0454 201.938 92.2188 202.013 92.3926 202.086ZM72.4248 201.712C72.6015 201.833 72.7795 201.953 72.957 202.073C72.8149 201.977 72.6718 201.882 72.5303 201.785L72.4248 201.712ZM91.54 201.72C91.3101 201.62 91.0806 201.519 90.8516 201.416C91.0807 201.519 91.3102 201.62 91.54 201.72ZM89.8076 200.942C90.1016 201.078 90.3962 201.212 90.6914 201.345C90.1154 201.086 89.5425 200.821 88.9727 200.549C89.25 200.681 89.5285 200.812 89.8076 200.942ZM88.7334 200.434C88.5051 200.324 88.2771 200.214 88.0498 200.102C88.277 200.214 88.505 200.324 88.7334 200.434ZM87.8906 200.023C87.7028 199.93 87.5152 199.837 87.3281 199.742C87.5151 199.837 87.7028 199.93 87.8906 200.023ZM86.8828 199.516C86.7028 199.424 86.5231 199.331 86.3438 199.238C86.5231 199.331 86.7027 199.424 86.8828 199.516ZM86.123 199.122C85.9497 199.031 85.7772 198.939 85.6045 198.847C85.7771 198.939 85.9497 199.031 86.123 199.122ZM47.4014 156.369C52.9685 170.141 62.0519 182.071 73.6006 191.058C73.5464 191.016 73.4916 190.974 73.4375 190.932L67.708 198.256C54.9624 188.288 44.9358 175.084 38.7793 159.855L47.4014 156.369ZM83.623 197.757C83.3572 197.606 83.0923 197.453 82.8281 197.299C83.0922 197.453 83.3571 197.606 83.623 197.757ZM81.5391 196.531C81.4401 196.47 81.3409 196.41 81.2422 196.35C81.3409 196.41 81.44 196.47 81.5391 196.531ZM80.8779 196.125C80.7197 196.027 80.5618 195.929 80.4043 195.829C80.5618 195.929 80.7197 196.027 80.8779 196.125ZM80.001 195.573C79.9038 195.512 79.8069 195.449 79.71 195.387C79.8068 195.449 79.9038 195.512 80.001 195.573ZM79.2676 195.101C79.1276 195.01 78.9881 194.918 78.8486 194.825C78.988 194.918 79.1276 195.01 79.2676 195.101ZM78.4502 194.561C78.3163 194.471 78.1832 194.381 78.0498 194.29C78.1831 194.381 78.3163 194.471 78.4502 194.561ZM77.7344 194.076C77.5019 193.917 77.27 193.757 77.0391 193.596C77.2699 193.757 77.5018 193.917 77.7344 194.076ZM76.9287 193.519C76.6883 193.35 76.4487 193.18 76.21 193.009C76.4486 193.18 76.6882 193.35 76.9287 193.519ZM75.8721 192.764C75.7404 192.668 75.6087 192.573 75.4775 192.477C75.6086 192.573 75.7404 192.668 75.8721 192.764ZM75.0596 192.167C74.9517 192.087 74.8438 192.007 74.7363 191.926C74.8438 192.007 74.9517 192.087 75.0596 192.167ZM74.3193 191.611C74.2164 191.532 74.1133 191.454 74.0107 191.375C74.1133 191.454 74.2164 191.532 74.3193 191.611ZM69.9941 61.9114C70.9685 61.0619 71.9618 60.236 72.9727 59.4338C67.1161 64.0809 61.8627 69.5293 57.3838 75.6682C44.8588 92.8356 39.3321 114.124 41.9258 135.216L32.6953 136.352C29.8132 112.916 35.9542 89.2618 49.8711 70.1868C53.9885 64.5434 58.695 59.4256 63.8828 54.9026L69.9941 61.9114ZM217.643 116.848C217.663 117.08 217.681 117.311 217.699 117.543C217.652 116.955 217.6 116.367 217.542 115.781L217.643 116.848ZM208.077 114.811C208.096 114.965 208.114 115.119 208.132 115.273C208.114 115.119 208.096 114.965 208.077 114.811ZM207.837 113.019C207.854 113.14 207.872 113.26 207.889 113.381C207.872 113.26 207.854 113.14 207.837 113.019ZM207.71 112.173C207.727 112.281 207.743 112.389 207.76 112.496C207.743 112.389 207.727 112.281 207.71 112.173ZM207.558 111.223C207.576 111.333 207.594 111.443 207.612 111.553C207.594 111.443 207.576 111.333 207.558 111.223ZM207.371 110.148C207.405 110.333 207.438 110.519 207.47 110.704C207.438 110.519 207.405 110.333 207.371 110.148ZM216.629 109.093C216.672 109.342 216.714 109.591 216.755 109.84C216.714 109.591 216.672 109.342 216.629 109.093ZM206.552 106.163C206.581 106.291 206.61 106.418 206.639 106.545C206.61 106.418 206.581 106.291 206.552 106.163ZM206.342 105.277C206.378 105.426 206.414 105.576 206.449 105.726C206.414 105.576 206.378 105.426 206.342 105.277ZM206.09 104.264C206.13 104.423 206.17 104.582 206.21 104.74C206.17 104.582 206.13 104.423 206.09 104.264ZM205.842 103.317C205.895 103.515 205.947 103.714 205.999 103.912C205.947 103.714 205.895 103.515 205.842 103.317ZM215.033 101.698C215.062 101.81 215.09 101.923 215.118 102.035C215.079 101.883 215.041 101.731 215.001 101.578C215.011 101.618 215.023 101.658 215.033 101.698ZM205.246 101.203C205.269 101.279 205.29 101.355 205.312 101.431C205.29 101.355 205.269 101.279 205.246 101.203ZM204.98 100.328C205.052 100.56 205.122 100.792 205.191 101.025C205.122 100.792 205.052 100.56 204.98 100.328ZM204.703 99.4465C204.748 99.5866 204.792 99.7271 204.836 99.8674C204.792 99.7271 204.748 99.5866 204.703 99.4465ZM214.168 98.5813C214.262 98.8989 214.355 99.2169 214.445 99.5354C214.355 99.2167 214.262 98.8987 214.168 98.5813ZM204.429 98.6077C204.465 98.7173 204.501 98.827 204.537 98.9368C204.501 98.827 204.465 98.7173 204.429 98.6077ZM214.013 98.0657C214.065 98.2374 214.117 98.4091 214.168 98.5813C214.117 98.4092 214.065 98.2375 214.013 98.0657ZM204.093 97.6165C204.15 97.7826 204.207 97.949 204.264 98.1155C204.207 97.9489 204.15 97.7826 204.093 97.6165ZM203.765 96.6868C203.831 96.8702 203.896 97.0537 203.961 97.2375C203.896 97.0536 203.831 96.8701 203.765 96.6868ZM203.356 95.5735C203.456 95.8393 203.554 96.1056 203.651 96.3723C203.554 96.1055 203.456 95.8391 203.356 95.5735ZM202.993 94.6252C203.091 94.8765 203.188 95.128 203.283 95.3801C203.188 95.1279 203.091 94.8764 202.993 94.6252ZM202.646 93.7454C202.729 93.9523 202.81 94.1599 202.892 94.3674C202.81 94.1599 202.729 93.9522 202.646 93.7454ZM202.305 92.9124C202.328 92.9674 202.35 93.0224 202.373 93.0774C202.35 93.0223 202.328 92.9673 202.305 92.9124ZM177.684 48.3625C192.291 58.4033 203.664 72.3682 210.557 88.5452L202.002 92.1907C202.044 92.29 202.085 92.39 202.127 92.4895C195.922 77.7686 185.603 65.0641 172.321 55.9612C172.353 55.9827 172.385 56.0041 172.416 56.0256L177.684 48.3625ZM211.066 89.7668C211.356 90.475 211.637 91.1873 211.91 91.9036C211.638 91.1882 211.357 90.4759 211.066 89.7668ZM73.1562 59.2893C73.3574 59.1306 73.5591 58.9725 73.7617 58.8157C73.5591 58.9725 73.3574 59.1306 73.1562 59.2893ZM79.4502 54.7795C77.7975 55.8516 76.1826 56.9823 74.6084 58.1692C76.1828 56.982 77.7977 55.8515 79.4502 54.7795ZM171.514 55.4143C171.745 55.5692 171.976 55.7258 172.206 55.8831C171.976 55.7259 171.745 55.5693 171.514 55.4143ZM170.725 54.8938C170.946 55.0379 171.166 55.1831 171.386 55.3293C171.166 55.1832 170.946 55.038 170.725 54.8938ZM169.984 54.4172C170.159 54.5287 170.334 54.6404 170.508 54.7532C170.334 54.6405 170.159 54.5287 169.984 54.4172ZM81.0732 53.7522C82.4388 52.9103 83.829 52.1083 85.2412 51.3459C83.8289 52.1084 82.4387 52.9103 81.0732 53.7522ZM169.211 53.9299C169.354 54.0192 169.498 54.1093 169.641 54.1995C169.498 54.1093 169.354 54.0192 169.211 53.9299ZM165.604 51.8079C166.705 52.419 167.793 53.0552 168.867 53.7161C167.792 53.0542 166.703 52.4181 165.604 51.8079ZM164.762 51.3479C164.951 51.4502 165.14 51.5537 165.329 51.6575C165.14 51.5536 164.951 51.4502 164.762 51.3479ZM163.918 50.8987C164.118 51.0038 164.318 51.1093 164.518 51.2161C164.318 51.1093 164.118 51.0038 163.918 50.8987ZM86.166 50.8538C86.4447 50.7078 86.7245 50.564 87.0049 50.4211C86.7245 50.564 86.4447 50.7078 86.166 50.8538ZM163.174 50.5129C163.322 50.5888 163.47 50.6647 163.617 50.7415C163.47 50.6647 163.322 50.5888 163.174 50.5129ZM87.0908 50.3772C87.337 50.2521 87.5836 50.1278 87.8311 50.0051C87.5836 50.1278 87.337 50.2521 87.0908 50.3772ZM162.034 49.9387C162.267 50.0538 162.5 50.1701 162.732 50.2874C162.5 50.17 162.267 50.0538 162.034 49.9387ZM159.399 48.6946C160.285 49.0938 161.163 49.5089 162.034 49.9387C161.162 49.5085 160.284 49.0933 159.399 48.6946ZM87.9795 49.9319C88.2057 49.8203 88.4328 49.7104 88.6602 49.6008C88.4328 49.7104 88.2057 49.8203 87.9795 49.9319ZM92.3564 47.928C91.18 48.4263 90.0158 48.9505 88.8652 49.5012C90.0159 48.9505 91.1801 48.4262 92.3564 47.928ZM158.587 48.3342C158.729 48.3967 158.871 48.4604 159.014 48.5237C158.871 48.4604 158.729 48.3967 158.587 48.3342ZM157.614 47.9163C157.804 47.9967 157.994 48.0776 158.184 48.1594C157.994 48.0776 157.804 47.9967 157.614 47.9163ZM92.457 47.886C92.7068 47.7806 92.9571 47.6765 93.208 47.5735C92.9571 47.6765 92.7068 47.7806 92.457 47.886ZM156.794 47.5735C157.007 47.661 157.219 47.7499 157.432 47.8391C157.219 47.7499 157.007 47.6609 156.794 47.5735ZM107.636 33.636C121.675 30.9677 136.011 31.593 149.563 35.304L147.108 44.2717C147.182 44.2918 147.255 44.313 147.328 44.3333C135.066 40.9395 122.084 40.3558 109.372 42.7717C103.869 43.8176 98.5257 45.4055 93.4102 47.4905C93.5363 47.4391 93.6627 47.387 93.7891 47.3362L90.3203 38.7083C95.8764 36.4752 101.672 34.7695 107.636 33.636ZM155.949 47.2327C156.121 47.301 156.293 47.3693 156.464 47.4387C156.293 47.3692 156.121 47.301 155.949 47.2327ZM154.041 46.5002C154.561 46.6926 155.079 46.8895 155.595 47.092C155.079 46.8894 154.561 46.6924 154.041 46.5002ZM174.783 46.4465C174.829 46.4755 174.874 46.5053 174.92 46.5344C174.833 46.4791 174.746 46.4234 174.659 46.3684C174.7 46.3944 174.742 46.4204 174.783 46.4465ZM152.137 45.8206C152.705 46.0154 153.271 46.2171 153.835 46.4241C153.546 46.318 153.256 46.2135 152.966 46.1106L152.137 45.8206ZM151.137 45.4856C151.358 45.5584 151.579 45.6327 151.8 45.7073C151.579 45.6326 151.358 45.5584 151.137 45.4856ZM150.23 45.1936C150.5 45.2789 150.769 45.3654 151.038 45.4534C150.769 45.3654 150.5 45.2788 150.23 45.1936ZM149.278 44.8987C149.542 44.9785 149.805 45.0594 150.067 45.1418C149.805 45.0594 149.542 44.9785 149.278 44.8987ZM148.289 44.6047C148.592 44.6926 148.895 44.783 149.197 44.8743C148.895 44.783 148.592 44.6926 148.289 44.6047ZM171.952 44.7219C171.97 44.7322 171.987 44.7428 172.005 44.7532C171.979 44.7379 171.953 44.7225 171.927 44.7073L171.952 44.7219ZM147.392 44.3508C147.691 44.434 147.991 44.5182 148.289 44.6047C147.99 44.5182 147.691 44.434 147.392 44.3508ZM73.8994 58.7102C74.1349 58.5287 74.3711 58.3481 74.6084 58.1692C74.3711 58.3481 74.1349 58.5287 73.8994 58.7102ZM79.4502 54.7795C79.6994 54.6179 79.9493 54.4571 80.2002 54.2981C79.9493 54.4571 79.6994 54.6179 79.4502 54.7795ZM80.2793 54.2483C80.5431 54.0816 80.8076 53.916 81.0732 53.7522C80.8076 53.916 80.5431 54.0816 80.2793 54.2483ZM85.4844 51.2161C85.7112 51.0946 85.9381 50.9732 86.166 50.8538C85.9381 50.9732 85.7112 51.0946 85.4844 51.2161Z" fill="#D97757"/>
<path d="M46 159.5L72.5 148" stroke="#D97757" stroke-width="5"/>
<path d="M162.664 74.4985C149.842 64.9358 133.863 60.6082 117.967 62.3937C102.072 64.1793 87.451 71.9442 77.07 84.1133C66.6891 96.2825 61.3257 111.945 62.0678 127.923C62.8099 143.901 69.6019 158.999 81.0661 170.153C92.5303 181.308 107.808 187.684 123.801 187.989C139.793 188.293 155.303 182.503 167.183 171.793C179.064 161.083 186.425 146.255 187.775 130.316C189.125 114.378 184.362 98.5231 174.452 85.9676L169.507 89.8708C178.426 101.171 182.713 115.44 181.498 129.785C180.283 144.129 173.657 157.475 162.965 167.114C152.272 176.753 138.314 181.964 123.921 181.69C109.527 181.416 95.7773 175.677 85.4595 165.638C75.1418 155.599 69.0289 142.011 68.3611 127.631C67.6932 113.25 72.5202 99.1543 81.863 88.202C91.2059 77.2498 104.365 70.2613 118.671 68.6544C132.977 67.0474 147.358 70.9422 158.898 79.5487L162.664 74.4985Z" fill="#D97757"/>
<circle cx="125" cy="125" r="38" fill="#D97757"/>
<path d="M183 137L212 145" stroke="#D97757" stroke-width="5"/>
<path d="M195 71.5L222.5 52.5" stroke="#D97757" stroke-width="5"/>
<path d="M53 74L29 56" stroke="#D97757" stroke-width="5"/>
<path d="M121 65.5L118.5 36" stroke="#D97757" stroke-width="5"/>
<path d="M202.5 216.5L183 192.5" stroke="#D97757" stroke-width="5"/>
</svg>
